{"title":"Barrio.Tales.2012.WEBRip.XviD-Acesn8s","uid":8073298,"size":735048667,"categoryP":"video","categoryS":"movies","magnet":"?xt=urn:btih:03156c86c755c54dbb98337fca4c80ad092cd35c&amp;dn=Barrio.Tales.2012.WEBRip.XviD-Acesn8s&amp;tr=udp%3A%2F%2Ftracker.openbittorrent.com%3A80&amp;tr=udp%3A%2F%2Fopen.demonii.com%3A1337&amp;tr=udp%3A%2F%2Ftracker.coppersurfer.tk%3A6969&amp;tr=udp%3A%2F%2Fexodus.desync.com%3A6969","seeders":1,"leechers":1,"uploader":"Acesn8s","files":-1,"time":1359322692,"description":"Complete name                            : Barrio.Tales.2012.WEBRip.XviD-Acesn8s\nFormat                                   : AVI\nFormat/Info                              : Audio Video Interleave\nFile size                                : 695 MiB\nDuration                                 : 1h 22mn\nOverall bit rate                         : 1 184 Kbps\nWriting library                          : VirtualDub build 32842/release\n\nVideo\nID                                       : 0\nFormat                                   : MPEG-4 Visual\nFormat profile                           : Advanced Simple@L5\nFormat settings, BVOP                    : 4\nFormat settings, QPel                    : No\nFormat settings, GMC                     : No warppoints\nFormat settings, Matrix                  : Default (H.263)\nMuxing mode                              : Packed bitstream\nCodec ID                                 : XVID\nCodec ID/Hint                            : XviD\nDuration                                 : 1h 22mn\nBit rate                                 : 1 046 Kbps\nWidth                                    : 640 pixels\nHeight                                   : 272 pixels\nDisplay aspect ratio                     : 2.35:1\nFrame rate                               : 23.976 fps\nColor space                              : YUV\nChroma subsampling                       : 4:2:0\nBit depth                                : 8 bits\nScan type                                : Progressive\nCompression mode                         : Lossy\nBits/(Pixel*Frame)                       : 0.251\nStream size                              : 614 MiB (88%)\nWriting library                          : XviD 64\n\nAudio\nID                                       : 1\nFormat                                   : MPEG Audio\nFormat version                           : Version 1\nFormat profile                           : Layer 3\nMode                                     : Joint stereo\nMode extension                           : MS Stereo\nCodec ID                                 : 55\nCodec ID/Hint                            : MP3\nDuration                                 : 1h 22mn\nBit rate mode                            : Constant\nBit rate                                 : 128 Kbps\nChannel(s)                               : 2 channels\nSampling rate                            : 48.0 KHz\nCompression mode                         : Lossy\nStream size                              : 75.1 MiB (11%)\nAlignment                                : Split accross interleaves\nInterleave, duration                     : 42 ms (1.00 video frame)\nInterleave, preload duration             : 500 ms\nWriting library                          : LAME3.99.5\n\nSource                                   : WEB DL\n\nSubs                                     : Hardcoded for non English parts\n\nIMDB:    &lt;a href=&quot; http://www.imdb.com/title/tt2170301/&quot; rel=&quot;nofollow&quot; target=&quot;_NEW&quot;&gt; http://www.imdb.com/title/tt2170301/&lt;/a&gt;\n\nRankings: 4.8/10 from 33 users   \n\nGenre: Horror\n\nCast: Alexander Aguila, Carson Aune and Adam Beesely\n\nPlot: Two American teenagers in search of cheap drugs, trespass into the seedy \ntown of Barrio, Mexico. What they find instead is a disturbed story teller and   \nthree tales filled with blood, witches and a cannibalistic taco chef. \n\nScreens:\n &lt;a href=&quot;\nhttp://www.shotpix.com/images/59373550506405578366.jpg&quot; rel=&quot;nofollow&quot; target=&quot;_NEW&quot;&gt;\nhttp://www.shotpix.com/images/59373550506405578366.jpg&lt;/a&gt;\n &lt;a href=&quot;\nhttp://www.shotpix.com/images/28226282906499344165.jpg&quot; rel=&quot;nofollow&quot; target=&quot;_NEW&quot;&gt;\nhttp://www.shotpix.com/images/28226282906499344165.jpg&lt;/a&gt;\n &lt;a href=&quot;\nhttp://www.shotpix.com/images/77271270930372343620.jpg&quot; rel=&quot;nofollow&quot; target=&quot;_NEW&quot;&gt;\nhttp://www.shotpix.com/images/77271270930372343620.jpg&lt;/a&gt;\n &lt;a href=&quot;\nhttp://www.shotpix.com/images/77419208137052614466.jpg&quot; rel=&quot;nofollow&quot; target=&quot;_NEW&quot;&gt;\nhttp://www.shotpix.com/images/77419208137052614466.jpg&lt;/a&gt;\n &lt;a href=&quot;\nhttp://www.shotpix.com/images/98584944708584131116.jpg&quot; rel=&quot;nofollow&quot; target=&quot;_NEW&quot;&gt;\nhttp://www.shotpix.com/images/98584944708584131116.jpg&lt;/a&gt;","torrent":{"xt":"urn:btih:03156c86c755c54dbb98337fca4c80ad092cd35c","amp;dn":"Barrio.Tales.2012.WEBRip.XviD-Acesn8s","amp;tr":["udp%3A%2F%2Ftracker.openbittorrent.com%3A80","udp%3A%2F%2Fopen.demonii.com%3A1337","udp%3A%2F%2Ftracker.coppersurfer.tk%3A6969","udp%3A%2F%2Fexodus.desync.com%3A6969"],"infoHash":"03156c86c755c54dbb98337fca4c80ad092cd35c","infoHashBuffer":{"type":"Buffer","data":[3,21,108,134,199,85,197,77,187,152,51,127,202,76,128,173,9,44,211,92]},"announce":[],"urlList":[]}}